<svg width="632" height="646" viewBox="0 0 632 646" fill="none" xmlns="http://www.w3.org/2000/svg">
<path opacity="0.24" d="M291.981 27.2952C301.351 22.9252 310.681 19.4152 319.941 17.0852C329.211 15.6952 338.431 15.9452 347.601 17.8552C356.811 20.9752 365.991 25.6052 375.151 31.4852C384.381 38.0152 393.621 45.2552 402.881 52.8652C412.251 60.2552 421.681 67.4952 431.161 74.3852C440.791 80.4452 450.501 85.9552 460.281 90.9152C470.221 94.9652 480.231 98.5952 490.271 101.965C500.431 104.755 510.571 107.585 520.641 110.625C530.721 113.555 540.611 116.965 550.231 120.965C559.681 125.195 568.691 130.155 577.141 135.845C585.201 141.915 592.521 148.715 598.971 156.165C604.811 163.985 609.621 172.375 613.291 181.215C616.211 190.335 617.921 199.795 618.371 209.485C618.091 219.345 616.611 229.345 613.961 239.385C610.801 249.505 606.681 259.605 601.721 269.605C596.651 279.635 591.061 289.515 585.111 299.195C579.551 308.875 574.091 318.095 568.891 326.855C564.451 335.605 560.421 343.905 556.871 351.765C554.201 359.655 551.991 367.175 550.211 374.375C549.231 381.715 548.531 388.865 548.021 395.925C548.051 403.325 548.061 410.845 547.931 418.615C548.051 426.965 547.821 435.785 547.151 445.185C546.471 455.335 545.191 466.185 543.261 477.715C541.131 489.885 538.281 502.565 534.691 515.555C530.821 528.595 526.201 541.405 520.881 553.565C515.271 564.795 508.991 574.625 502.101 582.595C494.971 588.725 487.301 592.495 479.141 593.735C470.821 593.025 462.101 590.065 453.021 585.205C443.851 579.615 434.401 573.315 424.721 567.065C414.991 562.195 405.081 558.805 395.041 557.505C384.981 559.155 374.811 563.405 364.561 570.135C354.321 579.275 344.011 589.785 333.651 600.715C323.301 611.435 313.141 620.295 303.201 626.505C293.241 630.045 283.481 630.025 273.921 626.495C264.331 620.125 254.921 610.975 245.711 599.775C236.441 587.525 227.351 574.725 218.431 562.175C209.451 550.655 200.631 540.465 191.981 531.935C183.251 525.465 174.691 520.775 166.301 517.675C157.841 516.345 149.561 515.985 141.471 516.175C133.341 517.095 125.411 517.805 117.731 517.935C110.021 517.825 102.591 516.655 95.4606 514.275C88.3606 511.165 81.6006 506.735 75.2106 501.075C68.9106 494.645 63.0306 487.125 57.6006 478.705C52.3006 469.725 47.4906 460.085 43.2106 449.975C39.0906 439.555 35.5206 428.865 32.5206 418.055C29.7006 407.135 27.4706 396.205 25.8406 385.375C24.3706 374.535 23.5006 363.835 23.2406 353.345C23.1106 342.855 23.5606 332.585 24.6106 322.565C25.7306 312.545 27.3706 302.975 29.5006 293.865C31.6206 284.725 34.1806 275.995 37.1406 267.645C40.0306 259.225 43.2806 251.115 46.8506 243.285C50.2906 235.295 54.0306 227.485 58.0406 219.795C61.8806 211.835 65.9906 203.875 70.3206 195.855C74.4806 187.455 78.8806 178.895 83.5006 170.115C87.9606 160.915 92.6706 151.485 97.6106 141.855C102.421 131.915 107.491 121.895 112.821 111.905C118.061 101.945 123.591 92.3052 129.401 83.1852C135.161 74.5552 141.231 66.7752 147.601 60.0652C153.941 54.2452 160.601 49.6752 167.561 46.4452C174.531 44.0952 181.801 42.9552 189.351 42.8852C196.921 43.1652 204.771 44.0252 212.871 45.1852C220.991 45.8252 229.361 46.1852 237.961 46.0152C246.561 44.6752 255.381 42.5752 264.391 39.7352C273.401 35.8352 282.601 31.5852 291.971 27.3052" stroke="url(#paint0_linear_249_481)" stroke-width="2" stroke-linecap="round" stroke-dasharray="9 9"/>
<path opacity="0.52" d="M313.027 37.63C322.349 33.9476 331.614 31.0832 340.762 29.3033C349.858 28.4119 358.846 29.0367 367.692 31.2454C376.488 34.6034 385.189 39.4385 393.802 45.5204C402.434 52.3254 411.041 59.9007 419.634 67.9662C428.343 75.9596 437.102 83.9465 445.928 91.6976C454.931 98.7895 464.027 105.407 473.208 111.529C482.561 116.791 491.984 121.627 501.411 126.112C510.964 129.955 520.464 133.703 529.82 137.492C539.165 141.009 548.258 144.839 557.002 149.066C565.542 153.348 573.571 158.186 580.977 163.611C587.976 169.258 594.191 175.521 599.513 182.343C604.246 189.424 607.961 197.005 610.565 204.998C612.482 213.194 613.244 221.709 612.828 230.441C611.762 239.288 609.573 248.276 606.319 257.309C602.62 266.391 598.028 275.47 592.68 284.486C587.24 293.515 581.316 302.45 575.061 311.241C569.155 320.067 563.334 328.538 557.756 336.685C552.837 344.869 548.3 352.759 544.183 360.378C540.86 368.103 537.952 375.637 535.435 383.028C533.634 390.65 532.094 398.25 530.73 405.933C529.88 413.983 529.004 422.272 528.004 430.893C527.247 440.052 526.167 449.67 524.689 459.811C523.211 470.514 521.175 481.738 518.536 493.411C515.753 505.425 512.294 517.632 508.188 529.783C503.869 541.678 498.92 552.987 493.368 563.332C487.652 572.582 481.417 580.242 474.725 585.985C467.938 589.966 460.778 591.706 453.298 591.158C445.772 588.982 437.959 584.922 429.893 579.33C421.753 573.361 413.331 566.992 404.63 560.884C395.784 556.249 386.604 553.095 377.123 551.914C367.431 553.445 357.434 557.31 347.173 563.352C336.751 571.528 326.156 580.875 315.458 590.545C304.775 600.006 294.379 607.813 284.324 613.218C274.425 616.258 264.925 616.068 255.822 612.669C246.886 606.614 238.299 597.897 230.018 587.117C221.791 575.138 213.769 562.391 205.903 549.565C197.95 537.414 190.078 526.232 182.262 516.387C174.272 508.294 166.321 501.788 158.432 496.809C150.374 493.523 142.417 491.347 134.597 489.933C126.681 489.464 118.957 489.099 111.499 488.522C104.036 488.025 96.8945 486.799 90.1158 484.696C83.4108 482.117 77.1225 478.465 71.2814 473.732C65.5739 468.387 60.3499 462.013 55.6397 454.753C51.0958 446.983 47.0842 438.49 43.6223 429.453C40.3538 420.09 37.6323 410.364 35.4884 400.408C33.5353 390.305 32.1607 380.103 31.3667 369.912C30.7458 359.683 30.6907 349.534 31.2178 339.516C31.8739 329.517 33.0901 319.678 34.8636 310.039C36.7069 300.405 39.0322 291.186 41.8009 282.359C44.5611 273.512 47.7277 265.014 51.2429 256.831C54.704 248.565 58.4979 240.552 62.5777 232.75C66.5598 224.771 70.8148 216.901 75.3157 209.099C79.6852 201.026 84.3084 192.912 89.1481 184.713C93.8507 176.183 98.7848 167.499 103.951 158.651C108.979 149.482 114.239 140.17 119.734 130.773C125.101 121.218 130.703 111.739 136.541 102.457C142.266 93.3579 148.22 84.7158 154.396 76.7512C160.462 69.3602 166.752 62.9173 173.244 57.5814C179.636 53.0906 186.252 49.8386 193.05 47.8326C199.785 46.584 206.734 46.4131 213.898 47.1698C221.048 48.1359 228.437 49.55 236.073 51.1519C243.75 52.1753 251.711 52.8679 259.939 53.048C268.236 52.1003 276.824 50.4412 285.66 48.1179C294.554 44.8264 303.691 41.2211 313.017 37.6293" stroke="url(#paint1_linear_249_481)" stroke-width="2" stroke-linecap="round" stroke-dasharray="4 10"/>
<path opacity="0.42" d="M333.145 49.5451C342.39 46.5346 351.546 44.2893 360.558 43.0638C369.467 42.6317 378.184 43.6268 386.691 46.0971C395.083 49.662 403.306 54.6371 411.361 60.8611C419.371 67.8262 427.302 75.6384 435.192 84.0206C443.153 92.4735 451.149 101.032 459.198 109.508C467.422 117.463 475.747 125.058 484.143 132.22C492.729 138.62 501.376 144.584 510.028 150.166C518.805 155.078 527.499 159.787 536.036 164.393C544.547 168.621 552.777 172.971 560.603 177.536C568.231 182.003 575.31 186.846 581.726 192.1C587.756 197.43 592.984 203.223 597.31 209.463C601.081 215.836 603.864 222.634 605.578 229.766C606.659 237.02 606.65 244.554 605.543 252.285C603.85 260.084 601.117 268.019 597.396 276.015C593.289 284.028 588.369 292.076 582.745 300.105C577.039 308.143 570.882 316.147 564.39 324.103C558.214 332.105 552.108 339.894 546.184 347.477C540.86 355.165 535.842 362.694 531.183 370.113C527.226 377.712 523.629 385.261 520.362 392.837C517.731 400.696 515.317 408.665 513.047 416.827C511.237 425.378 509.397 434.217 507.445 443.414C505.721 453.067 503.707 463.124 501.323 473.583C498.975 484.431 496.14 495.583 492.782 506.924C489.332 518.352 485.321 529.671 480.775 540.631C476.13 551.081 470.968 560.691 465.38 569.109C459.746 576.349 453.752 581.932 447.465 585.595C441.212 587.667 434.725 587.685 428.05 585.677C421.416 582.392 414.569 577.551 407.514 571.54C400.369 565.445 392.914 559.195 385.115 553.371C377.062 549.057 368.541 546.18 359.571 545.119C350.23 546.53 340.427 549.987 330.203 555.343C319.713 562.57 308.956 570.749 298.063 579.182C287.196 587.426 276.663 594.173 266.586 598.782C256.793 601.311 247.545 600.927 238.862 597.634C230.514 591.904 222.657 583.648 215.237 573.373C207.971 561.807 200.969 549.298 194.166 536.465C187.275 523.962 180.434 512.103 173.591 501.253C166.517 491.815 159.389 483.753 152.236 477.082C144.821 471.969 137.424 468.01 130.094 464.929C122.603 462.916 115.262 461.268 108.161 459.704C101.024 458.469 94.213 456.855 87.7877 454.66C81.4415 452.265 75.5569 449.036 70.1567 444.956C64.9216 440.425 60.2146 435.02 56.0698 428.785C52.1155 422.134 48.7262 414.774 45.9347 406.833C43.3366 398.596 41.3251 389.927 39.903 380.948C38.6746 371.815 38.0272 362.501 37.9681 353.1C38.0673 343.65 38.7322 334.2 39.9643 324.81C41.3264 315.428 43.2317 306.133 45.6746 296.966C48.1867 287.808 51.146 278.986 54.5044 270.484C57.8769 261.953 61.6131 253.707 65.6889 245.7C69.7152 237.616 74.0499 229.706 78.6676 221.938C83.1876 214.005 87.9805 206.14 93.0153 198.28C97.9312 190.191 103.097 182.046 108.487 173.822C113.753 165.328 119.257 156.726 124.965 148.032C130.552 139.129 136.367 130.187 142.376 121.294C148.257 112.382 154.331 103.679 160.586 95.3355C166.698 87.2847 172.969 79.822 179.372 73.1357C185.618 67.0633 191.996 61.9792 198.479 58.001C204.801 54.8079 211.241 52.7728 217.781 51.8832C224.211 51.6245 230.793 52.2862 237.538 53.7285C244.251 55.2471 251.191 57.0909 258.367 59.0489C265.624 60.362 273.192 61.3355 281.063 61.8165C289.088 61.2084 297.435 59.9694 306.087 58.1474C314.856 55.4329 323.893 52.4636 333.135 49.5437" stroke="url(#paint2_linear_249_481)" stroke-width="2" stroke-linecap="round" stroke-dasharray="1 4"/>
<path opacity="0.78" d="M352.157 62.9824C361.283 60.6362 370.297 59.0024 379.121 58.2995C387.81 58.3243 396.248 59.6557 404.403 62.358C412.388 66.0877 420.114 71.1631 427.602 77.4453C434.989 84.4831 442.236 92.4114 449.366 100.979C456.541 109.721 463.704 118.705 470.883 127.713C478.212 136.354 485.624 144.748 493.091 152.795C500.76 160.19 508.465 167.173 516.174 173.759C524.012 179.697 531.76 185.339 539.334 190.791C546.907 195.772 554.181 200.719 561.041 205.732C567.719 210.5 573.843 215.466 579.312 220.671C584.417 225.807 588.738 231.266 592.175 237.026C595.117 242.803 597.095 248.883 598.062 255.238C598.472 261.616 597.841 268.221 596.192 274.996C594.019 281.781 590.889 288.688 586.84 295.683C582.466 302.671 577.321 309.718 571.514 316.806C565.657 323.884 559.339 331.017 552.684 338.189C546.316 345.413 539.964 352.559 533.752 359.622C528.062 366.828 522.602 374.012 517.422 381.225C512.861 388.653 508.577 396.171 504.548 403.836C501.092 411.788 497.781 419.965 494.592 428.383C491.805 437.174 488.983 446.264 486.049 455.688C483.347 465.458 480.386 475.531 477.116 485.855C473.921 496.399 470.317 507.039 466.305 517.623C462.289 528.083 457.841 538.174 453.004 547.65C448.174 556.472 442.994 564.258 437.542 570.738C429.384 577.864 412.443 581.262 403.79 577.451C398.065 573.388 392.178 568.084 386.075 561.925C379.856 555.926 373.282 549.963 366.286 544.533C358.915 540.608 350.993 538.017 342.478 537.088C333.469 538.365 323.874 541.419 313.758 546.089C303.288 552.36 292.495 559.421 281.535 566.641C270.61 573.695 260.066 579.408 250.048 583.24C240.413 585.242 231.436 584.654 223.155 581.444C215.335 576.042 208.135 568.277 201.479 558.552C195.091 547.525 189.049 535.417 183.261 522.79C177.433 510.206 171.654 497.97 165.866 486.438C159.826 475.986 153.685 466.669 147.461 458.552C140.909 451.816 134.292 446.191 127.678 441.508C120.831 437.91 114.07 434.863 107.497 432.132C100.844 429.916 94.4766 427.607 88.4804 425C82.5364 422.435 77.0517 419.304 72.07 415.544C67.2428 411.541 62.9691 406.819 59.2838 401.404C55.797 395.685 52.9097 389.317 50.6442 382.386C48.5821 375.224 47.1306 367.599 46.2863 359.624C45.6438 351.518 45.5895 343.151 46.1296 334.634C46.8332 326.071 48.1089 317.416 49.9419 308.737C51.9139 300.078 54.4076 291.419 57.444 282.804C60.5586 274.207 64.0914 265.852 68.0153 257.725C71.9413 249.588 76.2234 241.65 80.8385 233.876C85.4055 226.04 90.277 218.31 95.4159 210.669C100.482 202.889 105.809 195.135 111.383 187.372C116.854 179.424 122.561 171.424 128.492 163.38C134.31 155.148 140.343 146.87 146.571 138.583C152.668 130.196 158.962 121.892 165.414 113.756C171.702 105.717 178.14 98.027 184.683 90.7998C191.045 83.9426 197.493 77.779 203.99 72.434C210.272 67.7077 216.597 63.9725 222.941 61.2947C229.073 59.318 235.254 58.3953 241.461 58.5007C247.537 59.0691 253.717 60.4373 260.006 62.4425C266.298 64.3869 272.797 66.5598 279.542 68.7754C286.422 70.3142 293.621 71.5124 301.176 72.2449C308.929 71.9564 317.047 71.1121 325.498 69.7664C334.126 67.5995 343.026 65.256 352.145 62.9901" stroke="url(#paint3_linear_249_481)" stroke-width="2" stroke-linecap="round" stroke-dasharray="6 4"/>
<path opacity="0.48" d="M369.825 77.8847C378.786 76.1711 387.606 75.1244 396.219 74.9342C404.648 75.3778 412.781 77.0264 420.587 79.9443C428.146 83.7899 435.375 88.9145 442.312 95.1932C449.072 102.223 455.615 110.147 461.99 118.761C468.337 127.649 474.621 136.862 480.876 146.212C487.236 155.343 493.637 164.33 500.073 173.056C506.684 181.25 513.325 189.088 519.951 196.546C526.713 203.389 533.381 209.912 539.88 216.158C546.392 221.887 552.615 227.469 558.444 232.969C564.115 238.121 569.261 243.319 573.772 248.592C577.981 253.685 581.427 258.931 584.053 264.346C586.877 272.421 587.134 289.393 584.481 298.224C581.98 304.09 578.566 310.086 574.295 316.168C569.743 322.21 564.48 328.337 558.578 334.55C552.634 340.761 546.233 347.079 539.485 353.515C532.967 360.018 526.432 366.547 519.971 373.108C513.955 379.819 508.096 386.638 502.431 393.575C497.301 400.751 492.356 408.116 487.6 415.691C483.342 423.557 479.194 431.694 475.106 440.088C471.404 448.802 467.644 457.791 463.789 467.033C460.176 476.522 456.351 486.2 452.292 495.966C448.353 505.788 444.129 515.517 439.606 524.982C435.166 534.159 430.454 542.767 425.492 550.585C420.666 557.683 415.649 563.642 410.503 568.251C403.044 572.722 388.205 571.869 380.849 566.749C376.001 562.21 370.998 556.731 365.775 550.647C360.364 544.925 354.548 539.377 348.24 534.416C341.461 530.9 334.041 528.625 325.941 527.798C317.242 528.931 307.887 531.572 297.934 535.56C287.583 540.92 276.867 546.894 265.971 552.951C255.116 558.863 244.66 563.58 234.778 566.64C225.355 568.116 216.664 567.315 208.764 564.183C201.422 559.088 194.804 551.819 188.837 542.698C183.233 532.287 178.067 520.722 173.223 508.48C168.417 496.072 163.702 483.743 158.995 471.853C154.056 460.729 149.006 450.489 143.828 441.232C138.32 433.149 132.675 426.079 126.974 419.919C120.986 414.821 115.021 410.364 109.166 406.388C103.169 403.047 97.4082 399.826 91.9685 396.574C86.5376 393.542 81.5309 390.197 77.0024 386.458C72.5977 382.652 68.7513 378.321 65.4852 373.459C62.4052 368.423 59.9427 362.837 58.1 356.764C56.4627 350.522 55.4506 343.847 55.0731 336.814C54.8815 329.678 55.3021 322.262 56.3279 314.626C57.5173 306.964 59.2801 299.157 61.6215 291.256C64.0865 283.36 67.0998 275.404 70.6434 267.415C74.2611 259.457 78.2986 251.632 82.7228 243.981C87.1526 236.311 91.9418 228.766 97.0424 221.332C102.106 213.845 107.486 206.419 113.123 199.036C118.694 191.561 124.527 184.079 130.597 176.603C136.58 168.998 142.787 161.374 149.194 153.746C155.494 146.014 161.974 138.313 168.637 130.697C175.132 123.084 181.784 115.651 188.541 108.499C195.11 101.532 201.759 95.0051 208.453 89.0426C214.904 83.4885 221.374 78.6584 227.815 74.6839C233.996 71.2799 240.143 68.8235 246.237 67.3725C252.095 66.4878 257.93 66.544 263.753 67.5026C269.443 68.7767 275.204 70.7062 281.06 73.132C286.942 75.3985 293.029 77.8182 299.387 80.2019C305.908 81.9145 312.786 83.2933 320.027 84.2462C327.531 84.2551 335.424 83.7833 343.677 82.8953C352.132 81.2745 360.864 79.5256 369.812 77.8916" stroke="url(#paint4_linear_249_481)" stroke-width="2" stroke-linecap="round" stroke-dasharray="1 10"/>
<path opacity="0.29" d="M385.922 94.0961C394.681 92.993 403.267 92.5077 411.611 92.7965C419.769 93.6458 427.568 95.5883 434.983 98.6895C442.114 102.623 448.862 107.738 455.242 113.943C461.385 120.881 467.243 128.705 472.856 137.227C478.382 146.101 483.781 155.376 489.079 164.869C494.434 174.266 499.783 183.618 505.119 192.806C510.594 201.587 516.075 210.06 521.519 218.201C527.106 225.808 532.586 233.067 537.909 240.001C543.27 246.428 548.357 252.615 553.07 258.6C557.684 264.187 561.802 269.677 565.333 275.11C569.922 282.851 574.84 298.214 574.906 305.942C573.491 313.552 565.721 329.052 559.492 336.947C554.864 342.17 549.54 347.488 543.598 352.921C537.638 358.347 531.214 363.932 524.412 369.677C517.813 375.507 511.139 381.426 504.473 387.466C498.186 393.666 491.972 400.043 485.882 406.604C480.246 413.406 474.727 420.443 469.32 427.724C464.358 435.275 459.447 443.09 454.573 451.153C450.056 459.464 445.49 467.992 440.847 476.673C436.468 485.504 431.942 494.388 427.257 503.213C422.767 511.971 418.094 520.47 413.258 528.547C408.608 536.234 403.817 543.23 398.931 549.328C391.93 556.8 378.286 563.97 371.778 563.238C367.695 561.362 363.613 558.177 359.527 553.818C355.475 549.077 351.257 543.658 346.788 537.847C342.064 532.529 336.876 527.487 331.128 523.039C324.839 519.947 317.845 517.96 310.11 517.234C301.718 518.206 292.62 520.432 282.906 523.752C272.745 528.229 262.206 533.184 251.477 538.134C240.806 542.956 230.556 546.718 220.892 549.034C211.731 550.01 203.357 548.996 195.817 545.913C188.923 541.107 182.826 534.335 177.46 525.84C172.552 516.096 168.168 505.191 164.178 493.505C160.312 481.48 156.599 469.331 152.965 457.371C149.136 445.914 145.214 435.083 141.181 425.022C136.798 415.908 132.275 407.669 127.643 400.275C122.694 393.83 117.705 388.073 112.756 382.874C107.614 378.372 102.635 374.153 97.9065 370.091C90.9322 364.488 79.1681 352.615 74.6507 345.924C70.9545 338.767 66.8918 322.355 66.5668 313.189C66.7443 306.915 67.5381 300.355 68.9496 293.565C70.5226 286.77 72.6738 279.794 75.421 272.675C78.2818 265.565 81.7027 258.353 85.6672 251.053C89.7009 243.767 94.1683 236.578 99.0095 229.472C103.864 222.361 109.073 215.327 114.612 208.351C120.109 201.348 125.914 194.374 131.984 187.433C137.983 180.423 144.254 173.428 150.734 166.446C157.13 159.401 163.734 152.369 170.517 145.403C177.171 138.41 183.989 131.521 190.925 124.803C197.682 118.168 204.541 111.805 211.445 105.81C218.124 100.052 224.816 94.8105 231.486 90.1786C237.877 85.9558 244.211 82.4683 250.452 79.8101C259.327 77.0337 276.252 76.5587 284.384 78.6664C289.678 80.4968 295.025 82.8478 300.471 85.5972C305.968 88.0889 311.691 90.6634 317.686 93.1671C323.903 95.007 330.481 96.5322 337.444 97.6769C344.702 97.9607 352.362 97.8487 360.393 97.3939C368.649 96.2974 377.186 95.1336 385.912 94.0927" stroke="url(#paint5_linear_249_481)" stroke-width="2" stroke-linecap="round" stroke-dasharray="6 9"/>
<path opacity="0.39" d="M400.25 111.46C408.751 110.945 417.06 110.979 425.102 111.727C432.931 112.949 440.383 115.152 447.398 118.399C454.104 122.383 460.374 127.455 466.203 133.534C471.754 140.299 476.942 147.921 481.819 156.236C486.55 164.947 491.07 174.1 495.424 183.551C499.782 192.992 504.061 202.486 508.279 211.898C512.597 221.014 516.883 229.908 521.091 238.514C525.441 246.658 529.675 254.476 533.756 261.95C537.885 268.953 541.769 275.648 545.32 282.083C548.813 288.086 551.863 293.88 554.393 299.515C557.605 307.41 560.254 322.399 559.465 329.633C557.415 336.573 548.839 350.357 542.437 357.268C537.761 361.809 532.422 366.457 526.492 371.2C520.557 375.953 514.15 380.854 507.331 385.965C500.697 391.149 493.936 396.472 487.127 401.949C480.638 407.593 474.157 413.437 467.72 419.499C461.674 425.792 455.686 432.319 449.757 439.081C444.218 446.073 438.702 453.306 433.216 460.717C428.056 468.33 422.873 476.064 417.653 483.858C412.713 491.712 407.694 499.498 402.618 507.094C397.795 514.54 392.9 521.614 387.968 528.134C383.31 534.24 378.635 539.582 374.016 543.994C361.584 550.537 345.123 545.373 340.089 539.016C336.72 534.319 333.153 529.138 329.29 523.736C325.111 518.915 320.417 514.41 315.128 510.494C309.228 507.815 302.588 506.097 295.18 505.427C287.089 506.225 278.278 508.038 268.835 510.717C258.939 514.355 248.672 518.33 238.232 522.25C227.833 526.056 217.865 528.927 208.509 530.537C199.658 531.027 191.622 529.777 184.458 526.738C177.973 522.217 172.342 515.92 167.502 508.06C163.197 499.037 159.489 488.857 156.254 477.848C153.229 466.396 150.447 454.648 147.799 442.895C145.037 431.419 142.237 420.343 139.344 409.817C136.153 400.024 132.821 390.935 129.354 382.585C125.561 375.054 121.688 368.189 117.803 361.91C113.682 356.304 109.653 351.101 105.814 346.181C100.028 339.496 90.2331 326.543 86.5189 319.836C83.506 312.985 80.608 297.939 80.8072 289.727C81.3104 284.152 82.4301 278.328 84.1549 272.305C86.0229 266.281 88.4878 260.076 91.5596 253.716C94.7175 247.385 98.456 240.908 102.754 234.334C107.112 227.774 111.9 221.255 117.08 214.792C122.26 208.329 127.805 201.91 133.669 195.535C139.497 189.144 145.63 182.781 152.02 176.457C158.341 170.091 164.918 163.764 171.691 157.491C178.359 151.205 185.215 144.992 192.218 138.889C199.07 132.828 206.042 126.941 213.086 121.306C219.93 115.801 226.815 110.642 233.681 105.915C240.299 101.448 246.862 97.5155 253.334 94.2226C259.518 91.3039 265.578 89.0974 271.495 87.6711C279.86 86.5571 295.591 88.7158 303.097 91.7008C310.481 95.2994 325.877 103.559 334.258 107.475C340.191 109.4 346.506 111.06 353.206 112.377C360.238 112.933 367.659 113.159 375.446 113.134C383.469 112.535 391.765 111.917 400.241 111.456" stroke="url(#paint6_linear_249_481)" stroke-width="2" stroke-linecap="round" stroke-dasharray="10 4"/>
<path opacity="0.89" d="M412.582 129.74C420.773 129.775 428.766 130.305 436.454 131.466C443.941 133.041 451.008 135.481 457.611 138.829C463.88 142.837 469.672 147.816 474.972 153.71C479.953 160.24 484.525 167.571 488.702 175.575C492.682 183.985 496.372 192.873 499.823 202.077C503.227 211.369 506.475 220.781 509.594 230.181C512.777 239.399 515.874 248.458 518.863 257.276C521.957 265.731 524.934 273.896 527.75 281.725C530.638 289.127 533.29 296.208 535.647 302.972C537.975 309.324 539.932 315.395 541.422 321.216C543.22 329.315 543.58 344.18 541.928 351.092C539.228 357.588 529.892 370.087 523.342 376.226C518.622 380.228 513.288 384.296 507.392 388.459C501.5 392.614 495.144 396.916 488.365 401.41C481.75 405.982 474.964 410.7 468.076 415.568C461.474 420.6 454.812 425.828 448.152 431.262C441.832 436.889 435.518 442.735 429.24 448.771C423.295 455.009 417.376 461.408 411.477 467.921C405.895 474.581 400.33 481.273 394.771 487.912C389.516 494.578 384.262 501.051 379.039 507.235C374.112 513.248 369.226 518.784 364.425 523.718C357.736 530.135 345.566 537.771 340.169 538.558C335.409 537.337 326.846 529.108 322.725 522.689C318.359 515.798 307.485 502.26 300.376 496.88C294.776 494.582 288.44 493.082 281.327 492.457C273.533 493.056 265.027 494.452 255.909 496.519C246.356 499.374 236.444 502.433 226.369 505.393C216.346 508.256 206.755 510.295 197.756 511.256C189.272 511.28 181.598 509.82 174.811 506.816C168.72 502.539 163.508 496.715 159.12 489.483C155.32 481.181 152.183 471.795 149.603 461.561C147.312 450.813 145.337 439.667 143.582 428.366C141.797 417.141 140.046 406.127 138.253 395.487C136.226 385.346 134.07 375.761 131.811 366.767C129.241 358.458 126.568 350.74 123.852 343.59C120.876 337.049 117.926 330.965 115.095 325.252C110.733 317.466 103.311 303.106 100.553 296.138C98.3684 289.307 96.7961 275.028 97.5316 267.498C99.0581 259.848 105.272 243.739 109.939 235.338C113.342 229.731 117.317 223.988 121.845 218.147C126.431 212.324 131.454 206.533 136.843 200.78C142.254 195.049 148.018 189.338 154.08 183.685C160.124 178.023 166.439 172.405 173.012 166.857C179.506 161.289 186.229 155.799 193.124 150.412C199.902 145.032 206.833 139.79 213.87 134.73C220.744 129.741 227.683 124.992 234.639 120.547C241.389 116.252 248.11 112.351 254.758 108.921C261.148 105.739 267.429 103.1 273.556 101.082C282.239 98.872 298.321 98.3602 305.747 100.05C312.778 102.663 326.517 110.327 333.541 114.833C338.412 117.556 343.516 120.268 348.915 122.877C354.613 124.886 360.672 126.647 367.123 128.142C373.922 128.95 381.096 129.504 388.619 129.873C396.389 129.761 404.401 129.665 412.568 129.744" stroke="url(#paint7_linear_249_481)" stroke-width="2" stroke-linecap="round" stroke-dasharray="5 2"/>
<path opacity="0.36" d="M422.765 148.697C430.604 149.231 438.232 150.211 445.529 151.751C452.634 153.631 459.3 156.263 465.472 159.694C471.313 163.685 476.631 168.541 481.427 174.202C485.887 180.432 489.863 187.409 493.399 195.006C496.683 203.001 499.619 211.473 502.254 220.287C504.763 229.247 507.062 238.369 509.168 247.535C511.274 256.606 513.242 265.578 515.07 274.379C516.966 282.904 518.726 291.176 520.314 299.139C521.961 306.749 523.403 314.027 524.576 320.982C526.193 330.678 527.429 348.027 526.813 355.79C525.456 362.872 519.553 375.775 514.913 381.726C511.463 385.495 507.395 389.194 502.72 392.862C497.95 396.436 492.629 400.039 486.788 403.68C480.954 407.326 474.674 411.08 467.979 414.986C461.424 418.968 454.678 423.066 447.816 427.292C441.182 431.662 434.473 436.187 427.744 440.875C421.294 445.74 414.828 450.761 408.389 455.906C402.252 461.229 396.139 466.627 390.077 472.057C384.314 477.594 378.605 483.082 372.974 488.43C367.636 493.762 362.392 498.834 357.264 503.554C350.113 510.106 337.13 519.76 331.415 522.416C322.206 522.009 311.028 511.434 307.603 505.232C303.79 498.915 293.805 486.977 287.055 482.328C281.698 480.359 275.61 479.04 268.779 478.41C261.278 478.8 253.101 479.792 244.353 481.274C235.196 483.385 225.703 485.616 216.076 487.702C206.508 489.695 197.353 490.979 188.786 491.334C180.709 490.934 173.433 489.265 167.031 486.292C161.303 482.254 156.466 476.862 152.49 470.241C149.113 462.673 146.45 454.089 144.408 444.691C142.711 434.767 141.428 424.358 140.435 413.695C139.501 402.975 138.675 392.311 137.886 381.849C136.936 371.698 135.918 361.954 134.822 352.67C133.463 343.894 132.004 335.634 130.484 327.88C128.699 320.657 126.92 313.875 125.197 307.507C122.416 298.754 117.705 282.97 116.086 275.615C114.892 268.6 114.864 254.654 116.196 247.592C118.227 240.547 125.221 226.05 130.192 218.605C133.783 213.658 137.918 208.618 142.601 203.499C147.334 198.411 152.468 193.364 157.973 188.386C163.486 183.413 169.33 178.496 175.464 173.644C181.566 168.806 187.93 164.041 194.513 159.378C201.023 154.717 207.715 150.181 214.554 145.787C221.263 141.429 228.088 137.263 234.957 133.325C241.665 129.475 248.38 125.913 255.069 122.69C261.535 119.634 267.93 116.97 274.195 114.792C283.145 112.112 299.757 109.925 307.379 110.522C314.448 112.048 327.641 118.017 333.957 122.155C340.329 126.411 353.954 135.137 361.54 139.12C367.013 141.186 372.848 143.055 379.046 144.705C385.605 145.766 392.52 146.638 399.754 147.381C407.239 147.726 414.93 148.119 422.751 148.701" stroke="url(#paint8_linear_249_481)" stroke-width="2" stroke-linecap="round" stroke-dasharray="7 9"/>
<path opacity="0.98" d="M430.629 168.015C438.082 169.007 445.295 170.393 452.179 172.258C458.871 174.402 465.104 177.203 470.845 180.672C476.258 184.62 481.118 189.303 485.436 194.705C489.399 200.59 492.847 207.139 495.803 214.257C498.48 221.754 500.753 229.698 502.648 237.985C504.384 246.44 505.835 255.096 507.027 263.833C508.172 272.55 509.125 281.223 509.901 289.767C510.692 298.122 511.328 306.265 511.78 314.135C512.276 321.727 512.561 329.015 512.617 335.973C512.696 342.612 512.488 348.916 511.943 354.885C510.899 363.219 506.612 377.982 503.206 384.514C499.129 390.491 488.175 401.339 481.292 406.354C476.476 409.589 471.169 412.784 465.389 415.98C459.629 419.165 453.45 422.414 446.889 425.743C440.441 429.155 433.816 432.622 427.073 436.164C420.523 439.848 413.895 443.623 407.237 447.489C400.819 451.518 394.397 455.619 387.998 459.774C381.872 464.081 375.796 468.387 369.805 472.645C364.092 476.982 358.481 481.196 353.004 485.211C345.308 491.044 331.287 500.627 325.069 503.996C309.239 504.363 297.722 492.817 294.768 487.029C291.292 481.378 281.819 471.002 275.319 467.011C270.14 465.309 264.265 464.114 257.699 463.452C250.492 463.61 242.679 464.204 234.345 465.134C225.632 466.58 216.628 468.048 207.511 469.333C198.448 470.546 189.793 471.153 181.719 470.971C174.088 470.17 167.235 468.329 161.214 465.375C155.856 461.554 151.374 456.578 147.732 450.544C144.723 443.685 142.447 435.913 140.816 427.385C139.605 418.335 138.854 408.78 138.484 398.909C138.255 388.88 138.215 378.78 138.288 368.763C138.286 358.915 138.281 349.324 138.246 340.06C138.011 331.17 137.708 322.676 137.342 314.621C136.748 306.994 136.138 299.777 135.539 292.967C134.421 283.488 132.672 266.517 132.313 258.79C132.224 251.522 133.979 237.652 135.987 230.91C138.58 224.301 146.371 211.137 151.613 204.54C155.342 200.183 159.581 195.791 164.34 191.384C169.125 187.009 174.301 182.711 179.792 178.508C185.299 174.317 191.099 170.217 197.16 166.235C203.179 162.259 209.431 158.406 215.86 154.682C222.215 150.992 228.708 147.452 235.302 144.111C241.767 140.811 248.302 137.737 254.835 134.935C261.198 132.23 267.535 129.829 273.791 127.792C282.793 125.143 299.721 122.307 307.545 122.255C314.802 122.99 328.064 127.241 334.164 130.626C340.046 134.41 351.819 143.214 358.022 147.843C364.747 151.949 380.085 159.031 388.84 161.813C395.152 163.107 401.788 164.28 408.7 165.383C415.854 166.141 423.197 166.978 430.621 168.01" stroke="url(#paint9_linear_249_481)" stroke-width="2" stroke-linecap="round" stroke-dasharray="10 6"/>
<path opacity="0.54" d="M436.113 187.39C443.135 188.783 449.9 190.523 456.337 192.665C462.593 195.035 468.382 197.953 473.684 201.428C483.28 209.594 490.665 220.265 495.901 233.06C499.92 247.222 502.272 262.789 503.272 279.003C503.869 295.335 503.577 311.447 502.482 326.759C501.448 341.243 499.59 354.566 496.695 366.546C493.748 377.445 489.461 387.112 483.593 395.565C477.477 403.214 469.625 410.018 459.992 416.106C455.12 419.038 449.823 421.883 444.129 424.654C438.458 427.43 432.423 430.185 426.042 432.962C419.759 435.822 413.334 438.666 406.81 441.518C400.445 444.492 394.026 447.498 387.586 450.513C375.338 456.989 363.2 463.428 351.504 469.534C340.844 475.903 330.823 481.399 321.705 485.523C310.36 489.997 294.65 486.501 289.467 478.427C286.067 472.5 282.093 465.598 276.881 458.576C269.756 453.694 260.285 449.98 248.29 447.781C241.402 447.697 233.971 447.912 226.088 448.333C217.854 449.152 209.39 449.932 200.839 450.521C192.333 451.042 184.231 451.041 176.673 450.387C169.53 449.245 163.119 447.242 157.507 444.317C148.145 436.323 142.107 424.579 139.003 409.804C137.673 393.098 138.09 374.834 139.552 356.144C141.051 337.657 142.67 319.955 144.21 303.565C145.036 288.431 145.812 274.713 146.849 262.385C147.442 251.151 148.756 240.858 151.196 231.34C153.664 222.423 157.598 213.913 163.218 205.736C167.798 199.799 179.275 188.241 186.179 182.614C190.967 178.902 196.078 175.333 201.462 171.892C206.849 168.48 212.494 165.195 218.343 162.071C229.938 155.853 242.17 150.322 254.66 145.628C266.698 141.127 278.698 137.735 290.288 135.689C301.117 134.059 311.332 134.06 320.697 135.832C329.308 138.026 337.24 141.914 344.564 147.333C351.804 152.497 359.12 158.527 366.846 164.971C375.567 170.029 385.395 174.821 396.435 179.161C402.474 180.69 408.805 182.139 415.368 183.561C422.17 184.702 429.109 185.946 436.106 187.384" stroke="url(#paint10_linear_249_481)" stroke-width="2" stroke-linecap="round" stroke-dasharray="7 7"/>
<path opacity="0.92" d="M439.18 206.454C452.254 210.003 464.006 214.959 473.971 221.593C482.738 229.463 489.299 239.412 493.692 251.114C496.823 264.017 498.149 278.161 497.968 292.928C497.203 307.948 495.397 322.858 492.694 337.112C489.921 350.809 486.332 363.48 481.84 374.86C477.325 385.391 471.724 394.674 464.879 402.682C457.893 410.005 449.526 416.352 439.758 421.829C429.916 427.066 418.768 431.821 406.451 436.241C394.426 440.962 382.088 445.446 369.769 449.71C358.119 454.477 346.735 458.944 335.941 462.882C326.053 467.066 316.955 470.288 308.905 472.17C298.943 473.745 285.604 466.952 281.077 458.914C277.793 453.494 273.837 447.444 268.616 441.386C261.489 437.198 252.215 433.887 240.708 431.624C227.151 431.41 211.992 431.643 196.179 431.501C180.548 431.187 166.896 428.64 155.983 423.372C147.283 415.905 141.749 405.324 139.117 392.168C138.3 377.305 139.412 360.903 141.827 343.901C144.581 326.797 147.72 310.099 150.988 294.368C153.742 279.505 156.508 265.859 159.421 253.519C161.905 242.088 164.901 231.721 168.691 222.328C172.431 213.53 177.315 205.393 183.522 197.893C189.914 190.688 197.754 183.936 207.105 177.672C216.592 171.54 227.033 166.134 238.11 161.479C249.083 156.903 260.467 153.15 271.923 150.365C282.964 147.718 293.811 146.226 304.134 146.04C313.83 146.137 322.854 147.689 331.058 150.763C338.741 154.011 345.815 158.623 352.42 164.414C359.162 169.779 366.059 175.772 373.411 182.057C381.825 187.087 391.263 191.917 401.787 196.439C413.571 199.605 426.204 202.79 439.166 206.454" stroke="url(#paint11_linear_249_481)" stroke-width="2" stroke-linecap="round" stroke-dasharray="11 7"/>
<path opacity="0.18" d="M439.837 224.903C451.927 229.011 462.709 234.264 471.759 240.836C479.724 248.369 485.542 257.549 489.219 268.144C491.652 279.733 492.215 292.377 491.167 305.539C489.424 319.049 486.488 332.493 482.586 345.404C478.471 357.969 473.54 369.641 467.814 380.146C462.021 390.016 455.352 398.685 447.726 406.078C440.02 412.941 431.258 418.749 421.429 423.564C411.584 428.207 400.751 432.188 389.032 435.592C377.559 439.272 365.98 442.471 354.612 445.23C343.77 448.431 333.355 451.135 323.646 453.172C314.715 455.47 306.658 456.794 299.693 456.923C291.04 456.276 279.458 447.418 275.186 439.741C271.797 434.888 267.676 429.614 262.313 424.372C255.14 420.719 246.06 417.659 235.062 415.269C222.262 414.434 208.17 413.754 193.606 412.585C179.22 411.271 166.687 408.143 156.659 402.85C148.61 395.872 143.528 386.375 141.231 374.745C140.716 361.671 142.241 347.192 145.252 332.052C148.826 316.614 153.078 301.323 157.644 286.702C161.949 272.633 166.351 259.547 170.866 247.63C175.046 236.436 179.551 226.303 184.6 217.252C189.554 208.713 195.334 201.045 202.096 194.216C208.975 187.685 216.975 181.831 226.127 176.72C235.391 171.737 245.302 167.664 255.583 164.492C265.789 161.372 276.178 159.213 286.45 158.052C296.389 156.999 306.004 157.088 315.021 158.387C323.57 159.821 331.452 162.539 338.599 166.508C345.443 170.467 351.802 175.508 357.811 181.434C364.154 186.85 370.725 192.732 377.759 198.806C385.885 203.792 394.934 208.656 404.899 213.35C416.042 216.96 427.844 220.696 439.837 224.903Z" stroke="url(#paint12_linear_249_481)" stroke-width="2" stroke-linecap="round"/>
<path opacity="0.83" d="M438.178 242.369C449.246 246.926 459.042 252.356 467.187 258.787C474.374 265.941 479.517 274.359 482.603 283.839C484.518 294.127 484.557 305.237 482.957 316.759C480.579 328.613 476.943 340.436 472.246 351.813C467.245 363.007 461.411 373.427 454.831 382.808C448.152 391.748 440.735 399.577 432.601 406.192C424.396 412.42 415.413 417.582 405.698 421.691C395.964 425.677 385.534 428.886 374.545 431.352C363.725 434.053 353.042 436.095 342.715 437.549C332.822 439.388 323.483 440.602 314.93 441.099C303.482 441.799 286.443 438.344 280.738 433.797C275.934 428.419 265.717 414.667 257.96 407.788C250.726 404.5 241.864 401.555 231.418 398.992C219.439 397.567 206.454 396.081 193.192 394.053C180.08 391.908 168.685 388.321 159.575 383.046C152.163 376.518 147.48 368.012 145.417 357.811C145.028 346.441 146.71 333.86 149.988 320.648C154.003 307.035 158.904 293.41 164.322 280.245C169.716 267.377 175.321 255.279 181.071 244.191C186.589 233.622 192.338 224.06 198.434 215.593C204.437 207.562 210.985 200.474 218.203 194.373C225.485 188.537 233.561 183.555 242.42 179.496C251.384 175.558 260.676 172.655 270.092 170.753C279.447 168.885 288.781 168.042 297.845 168.211C306.654 168.426 315.056 169.72 322.85 172.111C330.328 174.518 337.198 178.021 343.434 182.539C349.569 186.908 355.357 192.122 360.914 198.005C366.941 203.352 373.25 209.049 380.017 214.899C387.846 219.834 396.472 224.724 405.854 229.565C416.283 233.552 427.2 237.732 438.178 242.369Z" stroke="url(#paint13_linear_249_481)" stroke-width="2" stroke-linecap="round" stroke-dasharray="6 2"/>
<path opacity="0.83" d="M434.351 258.556C444.367 263.434 453.157 268.942 460.422 275.17C466.852 281.912 471.392 289.568 474.018 297.972C475.565 306.993 475.31 316.604 473.425 326.489C470.762 336.684 466.782 346.826 461.731 356.562C456.28 366.237 449.984 375.248 442.987 383.344C435.839 391.157 428.057 397.973 419.717 403.672C411.303 409.097 402.339 413.506 392.898 416.866C383.448 420.158 373.558 422.603 363.372 424.2C353.324 426.006 343.581 427.059 334.358 427.446C325.449 428.165 317.192 428.201 309.742 427.536C299.706 426.566 284.758 420.715 279.51 415.744C274.66 410.45 263.584 398.015 255.459 391.9C248.222 388.818 239.64 385.893 229.803 383.102C218.701 381.134 206.854 378.963 194.909 376.246C183.089 373.446 172.845 369.51 164.649 364.304C157.878 358.206 153.582 350.593 151.668 341.707C151.284 331.906 152.912 321.124 156.173 309.803C160.268 298.075 165.398 286.263 171.214 274.764C177.202 263.38 183.531 252.585 190.067 242.649C196.51 233.061 203.138 224.37 209.969 216.731C216.741 209.419 223.863 203.074 231.364 197.773C238.913 192.692 246.947 188.561 255.459 185.444C264.048 182.445 272.679 180.544 281.206 179.682C289.707 178.838 298.008 179.013 305.918 180.176C313.679 181.33 320.984 183.481 327.69 186.578C334.256 189.624 340.282 193.578 345.789 198.342C351.377 202.884 356.73 208.086 361.958 213.789C367.751 218.987 373.832 224.474 380.342 230.086C387.839 234.961 396.008 239.873 404.765 244.803C414.423 249.103 424.418 253.623 434.351 258.556Z" stroke="url(#paint14_linear_249_481)" stroke-width="2" stroke-linecap="round" stroke-dasharray="3 4"/>
<path opacity="0.61" d="M428.54 273.184C437.486 278.244 445.284 283.733 451.686 289.676C457.403 295.992 461.408 302.896 463.654 310.284C464.964 318.109 464.583 326.313 462.667 334.647C459.989 343.238 456.021 351.718 450.979 359.839C445.501 367.942 439.17 375.469 432.17 382.214C424.964 388.777 417.199 394.472 409.001 399.172C400.704 403.697 392.025 407.279 383.059 409.864C374.069 412.427 364.863 414.136 355.555 414.973C346.341 415.998 337.582 416.24 329.41 415.793C321.473 415.64 314.223 414.813 307.761 413.346C298.911 411.228 285.432 403.97 280.328 398.903C275.2 393.815 263.118 382.499 254.719 376.901C247.559 373.911 239.337 370.911 230.17 367.903C220.001 365.461 209.335 362.725 198.701 359.477C188.18 356.165 179.091 352.012 171.801 346.937C165.675 341.24 161.734 334.45 159.938 326.739C159.465 318.363 160.903 309.242 163.918 299.703C167.794 289.817 172.794 279.827 178.602 270.069C184.701 260.319 191.285 251.042 198.145 242.459C205.025 234.095 212.109 226.521 219.33 219.882C226.531 213.494 233.922 208.032 241.506 203.587C249.122 199.318 256.996 196.018 265.078 193.76C273.219 191.606 281.181 190.54 288.866 190.468C296.548 190.433 303.896 191.354 310.793 193.184C317.639 194.985 324.004 197.665 329.833 201.165C335.651 204.544 341.023 208.679 345.988 213.457C351.183 217.991 356.215 223.052 361.209 228.492C366.807 233.498 372.677 238.742 378.921 244.119C386.055 248.938 393.717 253.837 401.786 258.806C410.633 263.325 419.663 268.085 428.54 273.184Z" stroke="url(#paint15_linear_249_481)" stroke-width="2" stroke-linecap="round" stroke-dasharray="7 10"/>
<path opacity="0.1" d="M420.993 286.012C428.884 291.125 435.709 296.489 441.28 302.103C446.301 307.957 449.812 314.15 451.766 320.583C452.935 327.322 452.561 334.238 450.788 341.143C448.321 348.244 444.641 355.189 439.923 361.764C434.76 368.361 428.759 374.448 422.124 379.85C415.253 385.154 407.867 389.695 400.127 393.375C392.273 396.954 384.128 399.686 375.827 401.528C367.505 403.348 359.087 404.383 350.7 404.574C342.391 404.927 334.593 404.539 327.404 403.498C320.371 402.715 313.991 401.301 308.325 399.339C300.409 396.507 287.836 388.566 282.636 383.594C277.128 378.746 264.121 368.278 255.586 363.017C248.626 360.008 240.868 356.901 232.45 353.687C223.26 350.828 213.776 347.676 204.436 344.058C195.196 340.392 187.243 336.127 180.851 331.234C175.384 325.934 171.812 319.892 170.105 313.231C169.503 306.102 170.634 298.472 173.265 290.574C176.703 282.394 181.282 274.148 186.721 266.103C192.549 258.018 198.942 250.306 205.699 243.175C212.561 236.171 219.667 229.848 226.891 224.333C234.138 219.006 241.501 214.508 248.921 210.947C256.382 207.544 263.932 205.05 271.518 203.545C279.139 202.136 286.434 201.743 293.352 202.283C300.282 202.826 306.814 204.257 312.878 206.495C318.951 208.685 324.565 211.635 329.727 215.264C334.976 218.774 339.872 222.894 344.472 227.531C349.367 231.928 354.181 236.762 358.998 241.882C364.399 246.67 370.047 251.673 375.991 256.813C382.695 261.548 389.785 266.398 397.138 271.357C405.123 275.993 413.175 280.864 420.993 286.012Z" stroke="url(#paint16_linear_249_481)" stroke-width="2" stroke-linecap="round" stroke-dasharray="3 8"/>
<path opacity="0.77" d="M411.996 296.866C418.84 301.913 424.713 307.06 429.501 312.287C435.388 320.413 439.58 337.369 437.939 345.9C435.837 351.679 432.618 357.24 428.454 362.44C423.866 367.655 418.498 372.412 412.521 376.57C406.297 380.674 399.597 384.136 392.575 386.856C385.442 389.511 378.07 391.443 370.601 392.576C363.108 393.73 355.581 394.166 348.147 393.847C340.769 393.646 333.886 392.79 327.573 391.357C318.529 389.251 303.436 382.926 297.24 378.849C291.322 374.772 280.029 365.364 273.866 360.244C269.019 357.123 263.717 353.825 257.906 350.404C251.276 347.334 244.094 344.115 236.502 340.723C228.326 337.57 220.033 334.119 211.965 330.279C203.981 326.407 197.133 322.145 191.617 317.503C186.814 312.593 183.602 307.224 181.99 301.498C181.258 295.471 182.064 289.146 184.214 282.692C187.071 276.038 191.023 269.386 195.855 262.927C201.087 256.42 206.94 250.239 213.217 244.536C219.665 238.917 226.398 233.863 233.265 229.509C240.188 225.272 247.215 221.767 254.246 219.098C261.311 216.545 268.382 214.805 275.388 213.97C282.424 213.211 289.071 213.354 295.287 214.32C301.535 215.284 307.37 217.032 312.774 219.464C318.223 221.846 323.284 224.884 327.958 228.47C332.781 231.944 337.342 235.928 341.691 240.307C346.361 244.517 350.992 249.064 355.644 253.861C360.832 258.406 366.207 263.157 371.785 268.043C377.999 272.66 384.47 277.413 391.069 282.276C398.159 286.937 405.222 291.803 411.996 296.866Z" stroke="url(#paint17_linear_249_481)" stroke-width="2" stroke-linecap="round" stroke-dasharray="4 5"/>
<path opacity="0.26" d="M401.847 305.616C413.382 315.359 421.111 325.156 424.535 334.615C426.06 344.499 423.097 353.861 416.49 361.876C408.464 369.944 397.796 376.216 385.7 379.989C373.181 383.643 359.935 384.862 346.956 383.37C334.099 382.27 322.991 378.981 313.821 374.147C304.648 370.078 296.747 364.576 289.638 358.116C281.172 352.55 271.91 346.142 261.493 339.182C248.631 333.119 234.587 326.25 221.044 318.399C207.746 310.461 198.966 301.462 195.34 291.825C194.394 281.479 198.428 270.746 206.146 260.679C215.36 250.471 226.799 241.593 239.166 234.991C251.815 228.721 264.858 224.967 277.548 224.35C290.317 223.991 301.59 226.631 311.245 231.608C321.217 236.465 330.102 243.378 338.102 251.655C347.342 259.442 356.794 268.315 366.568 277.716C378.315 286.461 390.494 295.816 401.847 305.616Z" stroke="url(#paint18_linear_249_481)" stroke-width="2" stroke-linecap="round" stroke-dasharray="7 6"/>
<path opacity="0.92" d="M390.85 312.208C400.465 321.329 406.894 330.099 409.792 338.18C411.36 346.461 409.204 353.934 403.968 360.014C397.625 366.109 388.918 370.582 378.851 372.941C368.413 375.253 357.225 375.512 346.127 373.49C335.1 371.77 325.332 368.243 316.979 363.48C308.463 359.289 300.722 353.939 293.433 347.847C284.98 342.398 275.905 336.181 266.146 329.458C254.67 323.251 242.638 316.302 231.408 308.61C220.363 300.874 213.042 292.683 209.877 284.428C208.641 275.812 211.556 267.288 217.694 259.577C225.093 251.816 234.665 245.26 245.318 240.627C256.272 236.231 267.731 233.936 278.986 234.267C290.287 234.793 300.362 237.795 309.121 242.668C318.204 247.476 326.501 253.968 334.145 261.569C342.836 268.863 351.677 277.097 360.579 285.809C370.947 294.157 381.382 303.053 390.85 312.208Z" stroke="url(#paint19_linear_249_481)" stroke-width="2" stroke-linecap="round" stroke-dasharray="1 8"/>
<path opacity="0.86" d="M379.321 316.628C387.128 324.927 392.326 332.625 394.738 339.447C396.266 346.321 394.853 352.233 390.941 356.787C386.227 361.329 379.492 364.406 371.466 365.706C363.165 366.989 354.049 366.561 344.76 364.247C335.507 362.159 327.007 358.592 319.402 354.04C311.603 349.863 304.171 344.755 296.993 339.029C288.939 333.709 280.442 327.72 271.681 321.288C261.799 315.129 251.807 308.349 242.747 301.074C233.836 293.775 227.913 286.478 225.245 279.515C223.879 272.392 225.813 265.696 230.438 259.912C236.016 254.136 243.603 249.504 252.324 246.491C261.315 243.647 270.975 242.558 280.665 243.592C290.383 244.804 299.253 247.967 307.168 252.611C315.353 257.242 323.012 263.245 330.192 270.115C338.161 276.847 346.191 284.391 354.06 292.324C362.938 300.105 371.644 308.319 379.321 316.628Z" stroke="url(#paint20_linear_249_481)" stroke-width="2" stroke-linecap="round" stroke-dasharray="5 6"/>
<path opacity="0.95" d="M367.57 318.936C375.703 329.507 380.669 346.359 377.48 352.069C374.206 355.407 369.273 357.479 363.17 358.06C356.887 358.638 349.742 357.797 342.187 355.407C334.646 353.176 327.416 349.732 320.648 345.494C313.71 341.492 306.881 336.696 300.187 331.397C292.911 326.321 285.403 320.673 277.914 314.682C269.762 308.802 261.789 302.463 254.768 295.868C247.846 289.264 243.249 282.951 241.103 277.191C240.334 268.796 250.983 256.177 260.591 252.84C267.571 251.185 275.314 250.978 283.352 252.491C291.402 254.124 298.998 257.294 305.974 261.604C313.152 265.936 320.018 271.36 326.524 277.47C333.558 283.542 340.554 290.29 347.254 297.326C354.573 304.326 361.56 311.647 367.57 318.936Z" stroke="url(#paint21_linear_249_481)" stroke-width="2" stroke-linecap="round" stroke-dasharray="1 6"/>
<path opacity="0.56" d="M355.882 319.238C366.083 336.082 354.59 350.89 338.103 346.571C326.308 342.351 314.228 334.305 303.009 324.703C290.427 315.537 277.337 304.401 267.133 293.028C257.168 281.661 254.61 272.069 258.702 265.958C264.267 260.038 274.819 257.961 287.487 261.314C300.171 264.977 312.506 273.337 323.304 283.838C335.302 294.386 347.111 307.027 355.882 319.238Z" stroke="url(#paint22_linear_249_481)" stroke-width="2" stroke-linecap="round" stroke-dasharray="11 10"/>
<path opacity="0.11" d="M344.484 317.677C351.61 330.697 344.374 341.212 332.589 337.287C323.949 333.542 314.463 326.739 305.54 318.724C295.996 310.898 286.487 301.612 279.51 292.525C271.755 279.863 280.338 267.654 293.139 270.52C302.394 273.996 312.001 280.975 320.569 289.472C329.673 298.067 338.36 308.163 344.484 317.677Z" stroke="url(#paint23_linear_249_481)" stroke-width="2" stroke-linecap="round" stroke-dasharray="8 4"/>
<path opacity="0.45" d="M333.579 314.451C341.101 327.599 337.389 333.17 326.135 327.152C314.855 321.514 299.788 307.041 291.607 294.256C283.667 281.479 288.026 275.232 299.933 280.523C311.819 286.145 326.287 301.32 333.579 314.451Z" stroke="url(#paint24_linear_249_481)" stroke-width="2" stroke-linecap="round" stroke-dasharray="5 2"/>
<defs>
<linearGradient id="paint0_linear_249_481" x1="29780.8" y1="16.2031" x2="29780.8" y2="61311" gradientUnits="userSpaceOnUse">
<stop stop-color="#1F89DB"/>
<stop offset="1" stop-color="#F42A8B"/>
</linearGradient>
<linearGradient id="paint1_linear_249_481" x1="28607.7" y1="2024.6" x2="24445.3" y2="60957.9" gradientUnits="userSpaceOnUse">
<stop stop-color="#1F89DB"/>
<stop offset="1" stop-color="#F42A8B"/>
</linearGradient>
<linearGradient id="paint2_linear_249_481" x1="27301.3" y1="3866.23" x2="19308.1" y2="60170.2" gradientUnits="userSpaceOnUse">
<stop stop-color="#1F89DB"/>
<stop offset="1" stop-color="#F42A8B"/>
</linearGradient>
<linearGradient id="paint3_linear_249_481" x1="25879.8" y1="5532.63" x2="14403.8" y2="58972.2" gradientUnits="userSpaceOnUse">
<stop stop-color="#1F89DB"/>
<stop offset="1" stop-color="#F42A8B"/>
</linearGradient>
<linearGradient id="paint4_linear_249_481" x1="24357.2" y1="7015.83" x2="9759.63" y2="57392.3" gradientUnits="userSpaceOnUse">
<stop stop-color="#1F89DB"/>
<stop offset="1" stop-color="#F42A8B"/>
</linearGradient>
<linearGradient id="paint5_linear_249_481" x1="22730.5" y1="8301.75" x2="5382.55" y2="55452" gradientUnits="userSpaceOnUse">
<stop stop-color="#1F89DB"/>
<stop offset="1" stop-color="#F42A8B"/>
</linearGradient>
<linearGradient id="paint6_linear_249_481" x1="21088.4" y1="9412.13" x2="1369.41" y2="53207" gradientUnits="userSpaceOnUse">
<stop stop-color="#1F89DB"/>
<stop offset="1" stop-color="#F42A8B"/>
</linearGradient>
<linearGradient id="paint7_linear_249_481" x1="19399.9" y1="10329.7" x2="-2301.6" y2="50667.5" gradientUnits="userSpaceOnUse">
<stop stop-color="#1F89DB"/>
<stop offset="1" stop-color="#F42A8B"/>
</linearGradient>
<linearGradient id="paint8_linear_249_481" x1="17682.7" y1="11052.4" x2="-5604.43" y2="47860.5" gradientUnits="userSpaceOnUse">
<stop stop-color="#1F89DB"/>
<stop offset="1" stop-color="#F42A8B"/>
</linearGradient>
<linearGradient id="paint9_linear_249_481" x1="15974.6" y1="11594.4" x2="-8501.21" y2="44841.2" gradientUnits="userSpaceOnUse">
<stop stop-color="#1F89DB"/>
<stop offset="1" stop-color="#F42A8B"/>
</linearGradient>
<linearGradient id="paint10_linear_249_481" x1="14274.1" y1="11946.5" x2="-10995.5" y2="41638.1" gradientUnits="userSpaceOnUse">
<stop stop-color="#1F89DB"/>
<stop offset="1" stop-color="#F42A8B"/>
</linearGradient>
<linearGradient id="paint11_linear_249_481" x1="12609.1" y1="12121.7" x2="-13078.1" y2="38315.9" gradientUnits="userSpaceOnUse">
<stop stop-color="#1F89DB"/>
<stop offset="1" stop-color="#F42A8B"/>
</linearGradient>
<linearGradient id="paint12_linear_249_481" x1="10986.6" y1="12117" x2="-14766.7" y2="34917.6" gradientUnits="userSpaceOnUse">
<stop stop-color="#1F89DB"/>
<stop offset="1" stop-color="#F42A8B"/>
</linearGradient>
<linearGradient id="paint13_linear_249_481" x1="9428.27" y1="11944.6" x2="-16054.1" y2="31483.8" gradientUnits="userSpaceOnUse">
<stop stop-color="#1F89DB"/>
<stop offset="1" stop-color="#F42A8B"/>
</linearGradient>
<linearGradient id="paint14_linear_249_481" x1="7950.15" y1="11614.9" x2="-16940.7" y2="28052.3" gradientUnits="userSpaceOnUse">
<stop stop-color="#1F89DB"/>
<stop offset="1" stop-color="#F42A8B"/>
</linearGradient>
<linearGradient id="paint15_linear_249_481" x1="6566.12" y1="11138" x2="-17430.7" y2="24659.5" gradientUnits="userSpaceOnUse">
<stop stop-color="#1F89DB"/>
<stop offset="1" stop-color="#F42A8B"/>
</linearGradient>
<linearGradient id="paint16_linear_249_481" x1="5289.71" y1="10526.5" x2="-17528.3" y2="21341.8" gradientUnits="userSpaceOnUse">
<stop stop-color="#1F89DB"/>
<stop offset="1" stop-color="#F42A8B"/>
</linearGradient>
<linearGradient id="paint17_linear_249_481" x1="4131.04" y1="9793.57" x2="-17095.4" y2="18077.9" gradientUnits="userSpaceOnUse">
<stop stop-color="#1F89DB"/>
<stop offset="1" stop-color="#F42A8B"/>
</linearGradient>
<linearGradient id="paint18_linear_249_481" x1="3103.8" y1="8947.33" x2="-16579.8" y2="15070.5" gradientUnits="userSpaceOnUse">
<stop stop-color="#1F89DB"/>
<stop offset="1" stop-color="#F42A8B"/>
</linearGradient>
<linearGradient id="paint19_linear_249_481" x1="2216.51" y1="8017.05" x2="-15527.9" y2="12192" gradientUnits="userSpaceOnUse">
<stop stop-color="#1F89DB"/>
<stop offset="1" stop-color="#F42A8B"/>
</linearGradient>
<linearGradient id="paint20_linear_249_481" x1="1475.39" y1="7011.32" x2="-14100.3" y2="9534.03" gradientUnits="userSpaceOnUse">
<stop stop-color="#1F89DB"/>
<stop offset="1" stop-color="#F42A8B"/>
</linearGradient>
<linearGradient id="paint21_linear_249_481" x1="884.112" y1="5945.74" x2="-12121.9" y2="7120.23" gradientUnits="userSpaceOnUse">
<stop stop-color="#1F89DB"/>
<stop offset="1" stop-color="#F42A8B"/>
</linearGradient>
<linearGradient id="paint22_linear_249_481" x1="445.218" y1="4704.14" x2="-9725.32" y2="4902.97" gradientUnits="userSpaceOnUse">
<stop stop-color="#1F89DB"/>
<stop offset="1" stop-color="#F42A8B"/>
</linearGradient>
<linearGradient id="paint23_linear_249_481" x1="183.197" y1="3545.3" x2="-7104.16" y2="3173.59" gradientUnits="userSpaceOnUse">
<stop stop-color="#1F89DB"/>
<stop offset="1" stop-color="#F42A8B"/>
</linearGradient>
<linearGradient id="paint24_linear_249_481" x1="65.454" y1="2554.42" x2="-5368" y2="1891.13" gradientUnits="userSpaceOnUse">
<stop stop-color="#1F89DB"/>
<stop offset="1" stop-color="#F42A8B"/>
</linearGradient>
</defs>
</svg>
